<?xml version="1.0" encoding="UTF-8"?>
<svg version="1.1" viewBox="0 0 53 53" xmlns="http://www.w3.org/2000/svg">
<title>Telegram_logo</title>
<desc>Created with Sketch.</desc>
<defs>
<linearGradient id="b" x1="66.67%" x2="41.67%" y1="16.67%" y2="75%">
<stop stop-color="#37AEE2" offset="0"/>
<stop stop-color="#1E96C8" offset="1"/>
</linearGradient>
<linearGradient id="a" x1="61.235%" x2="74.706%" y1="43.69%" y2="80.24%">
<stop stop-color="#EFF7FC" offset="0"/>
<stop stop-color="#fff" offset="1"/>
</linearGradient>
</defs>
<g fill="none" fill-rule="evenodd">
<circle cx="26.5" cy="26.5" r="26.5" fill="url(#b)"/>
<path d="m21.642 38.646c-0.85851 0-0.71263-0.32416-1.0087-1.1416l-2.5246-8.3088 19.433-11.529" fill="#C8DAEA"/>
<path d="m21.642 38.646c0.6625 0 0.95521-0.30298 1.325-0.6625l3.5333-3.4357-4.4074-2.6577" fill="#A9C9DD"/>
<path d="m22.092 31.891l10.68 7.8902c1.2187 0.67242 2.0982 0.32427 2.4018-1.1314l4.3471-20.485c0.44507-1.7844-0.68019-2.5937-1.846-2.0644l-25.526 9.8428c-1.7424 0.69887-1.7322 1.671-0.3176 2.1041l6.5506 2.0445 15.165-9.5676c0.71592-0.43414 1.373-0.20074 0.83369 0.2779" fill="url(#a)"/>
</g>
</svg>
