<?xml version="1.0" encoding="UTF-8"?>
<svg width="343.94" height="226.77" version="1.1" viewBox="0 0 343.93732 226.77068" xml:space="preserve" xmlns="http://www.w3.org/2000/svg" xmlns:cc="http://creativecommons.org/ns#" xmlns:dc="http://purl.org/dc/elements/1.1/" xmlns:rdf="http://www.w3.org/1999/02/22-rdf-syntax-ns#"><metadata><rdf:RDF><cc:Work rdf:about=""><dc:format>image/svg+xml</dc:format><dc:type rdf:resource="http://purl.org/dc/dcmitype/StillImage"/><dc:title/></cc:Work></rdf:RDF></metadata><defs><clipPath id="e"><path d="m109.35 1.967h146.71v168.11h-146.71z"/></clipPath><clipPath id="d"><path d="m131.44 115.07h84.755v-103.64h-84.755z"/></clipPath><clipPath id="c"><path d="m178.72 123.64h107.3v-115.63h-107.3z"/></clipPath><clipPath id="b"><path d="m128.98 56.315h162.43v-131.58h-162.43z"/></clipPath><clipPath id="a"><path d="m136.35 202.98h162.43v-131.58h-162.43z"/></clipPath><clipPath id="i"><path d="m256.4 116.39h91.738v-83.235h-91.738z"/></clipPath><clipPath id="h"><path d="m132.14 164.85h57.419v-48.201h-57.419z"/></clipPath><clipPath id="g"><path d="m240.94 145.29h57.418v-48.197h-57.418z"/></clipPath><clipPath id="f"><path d="M 0,170.078 H 257.953 V 0 H 0 Z"/></clipPath></defs><g transform="matrix(1.3333 0 0 -1.3333 0 226.77)"><g clip-path="url(#e)"><g clip-path="url(#d)" opacity=".39999"><g transform="translate(132.29 31.835)"><path d="m0 0 17.426-1.613-7e-3 -0.06-17.423 1.613z" fill="#58595b"/></g><g transform="translate(137.54 63.066)"><path d="m0 0 0.052 0.02 12.143-32.885-0.056-0.021z" fill="#58595b"/></g><g transform="translate(137.54 63.081)"><path d="m0 0 0.055-0.01-5.28-31.27-0.058 9e-3z" fill="#58595b"/></g><g transform="translate(137.59 63.102)"><path d="m0 0 19.006-11.319-0.027-0.05-19.01 11.318z" fill="#58595b"/></g><g transform="translate(136 89.73)"><path d="m0 0 0.06 3e-3 1.542-26.652-0.058-5e-3z" fill="#58595b"/></g><g transform="translate(151.16 84.264)"><path d="m0 0 0.053-0.03-13.623-21.173-0.049 0.032z" fill="#58595b"/></g><g transform="translate(136.04 89.758)"><path d="m0 0 15.16-5.483-0.019-0.054-15.162 5.481z" fill="#58595b"/></g><g transform="translate(136.02 89.76)"><path d="m0 0 29.363 9.829 0.018-0.056-29.361-9.831z" fill="#58595b"/></g><g transform="translate(165.37 99.579)"><path d="m0 0 0.045-0.038-14.201-15.314-0.045 0.039z" fill="#58595b"/></g><g transform="translate(151.2 84.275)"><path d="m0 0 18.921-9.169-0.027-0.052-18.916 9.168z" fill="#58595b"/></g><g transform="translate(151.21 84.267)"><path d="m0 0 17.515-22.156-0.045-0.038-17.521 22.158z" fill="#58595b"/></g><g transform="translate(151.16 84.244)"><path d="m0 0 0.055 9e-3 5.39-32.488-0.06-0.013z" fill="#58595b"/></g><g transform="translate(137.57 63.106)"><path d="m0 0 31.136-0.987-1e-3 -0.057-31.139 0.983z" fill="#58595b"/></g><g transform="translate(137.56 63.104)"><path d="m0 0 32.536 12.004 0.022-0.056-32.537-12.001z" fill="#58595b"/></g><g transform="translate(170.08 75.082)"><path d="m0 0 0.059-5e-3 -1.299-13.244-0.059 5e-3z" fill="#58595b"/></g><g transform="translate(149.73 30.211)"><path d="m0 0 16.146-17.907-0.042-0.036-16.149 17.905z" fill="#58595b"/></g><g transform="translate(175.44 45.107)"><path d="m0 0 0.029-0.052-25.749-14.889-0.029 0.05z" fill="#58595b"/></g><g transform="translate(156.55 51.767)"><path d="m0 0 0.057-0.017-6.863-21.568-0.057 0.02z" fill="#58595b"/></g><g transform="translate(156.59 51.786)"><path d="m0 0 18.884-6.677-0.02-0.055-18.884 6.676z" fill="#58595b"/></g><g transform="translate(168.69 62.113)"><path d="m0 0 0.038-0.044-12.132-10.332-0.037 0.044z" fill="#58595b"/></g><g transform="translate(156.57 51.786)"><path d="m0 0 26.774 7.17 0.014-0.058-26.77-7.168z" fill="#58595b"/></g><g transform="translate(168.71 62.119)"><path d="m0 0 14.642-3.164-0.013-0.058-14.641 3.164z" fill="#58595b"/></g><g transform="translate(168.68 62.079)"><path d="m0 0 0.056 0.023 6.751-17.008-0.053-0.024z" fill="#58595b"/></g><g transform="translate(175.43 45.07)"><path d="m0 0 0.056 0.021 4.798-14.39-0.055-0.019z" fill="#58595b"/></g><g transform="translate(175.43 45.091)"><path d="m0 0 0.056-0.019-9.602-32.794-0.057 0.014z" fill="#58595b"/></g><g transform="translate(180.23 30.71)"><path d="m0 0 0.047-0.036-14.403-18.405-0.043 0.035z" fill="#58595b"/></g><g transform="translate(185.1 49.843)"><path d="m0 0 0.058-0.016-4.875-19.142-0.054 0.014z" fill="#58595b"/></g><g transform="translate(180.28 30.714)"><path d="m0 0 15.471-12.149-0.037-0.045-15.469 12.147z" fill="#58595b"/></g><g transform="translate(185.12 49.861)"><path d="m0 0 0.027-0.054-9.672-4.752-0.027 0.053z" fill="#58595b"/></g><g transform="translate(183.32 58.921)"><path d="m0 0 0.058 0.013 1.78-9.094-0.055-0.011z" fill="#58595b"/></g><g transform="translate(193.18 66.319)"><path d="m0 0 0.034-0.047-9.847-7.369-0.037 0.048z" fill="#58595b"/></g><g transform="translate(183.37 58.946)"><path d="m0 0 11.16-14.433-0.049-0.034-11.158 14.429z" fill="#58595b"/></g><g transform="translate(185.16 49.851)"><path d="m0 0 12.449-22.156-0.053-0.03-12.449 22.154z" fill="#58595b"/></g><g transform="translate(185.14 49.86)"><path d="m0 0 9.379-5.336-0.029-0.054-9.379 5.339z" fill="#58595b"/></g><g transform="translate(185.15 49.857)"><path d="m0 0 30.211-26.817-0.04-0.044-30.212 26.815z" fill="#58595b"/></g><g transform="translate(197.55 27.686)"><path d="m0 0 0.059-0.013-1.854-9.136-0.057 0.01z" fill="#58595b"/></g><g transform="translate(197.59 27.71)"><path d="m0 0 17.763-4.663-0.013-0.056-17.764 4.659z" fill="#58595b"/></g><g transform="translate(197.28 42.043)"><path d="m0 0 0.06 1e-3 0.268-14.361-0.058-3e-3z" fill="#58595b"/></g><g transform="translate(194.53 44.52)"><path d="m0 0 2.801-2.455-0.037-0.044-2.802 2.453z" fill="#58595b"/></g><g transform="translate(197.3 42.072)"><path d="m0 0 8.776 1.998 0.013-0.058-8.776-1.999z" fill="#58595b"/></g><g transform="translate(197.33 42.062)"><path d="m0 0 18.034-19.024-0.044-0.041-18.032 19.023z" fill="#58595b"/></g><g transform="translate(200.65 62.256)"><path d="m0 0 0.058 0.016 5.405-18.222-0.055-0.019z" fill="#58595b"/></g><g transform="translate(206.11 44.054)"><path d="m0 0 9.258-21.021-0.056-0.026-9.258 21.022z" fill="#58595b"/></g><g transform="translate(193.22 66.312)"><path d="m0 0 12.887-22.257-0.052-0.028-12.887 22.254z" fill="#58595b"/></g><g transform="translate(193.21 66.324)"><path d="m0 0 7.479-4.034-0.029-0.053-7.479 4.034z" fill="#58595b"/></g><g transform="translate(196.41 80.564)"><path d="m0 0 0.061 0.014 4.233-18.307-0.062-0.014z" fill="#58595b"/></g><g transform="translate(182.93 102.45)"><path d="m0 0 17.773-40.177-0.051-0.022-17.776 40.176z" fill="#58595b"/></g><g transform="translate(183.06 114.21)"><path d="m0 0 0.055 0.024 13.36-33.654-0.058-0.023z" fill="#58595b"/></g><g transform="translate(182.61 86.938)"><path d="m0 0 13.85-6.342-0.028-0.054-13.847 6.341z" fill="#58595b"/></g><g transform="translate(173.05 106.43)"><path d="m0 0 23.417-25.841-0.042-0.04-23.416 25.841z" fill="#58595b"/></g><g transform="translate(183.05 114.22)"><path d="m0 0 0.061 1e-3 -0.186-11.786-0.055 1e-3z" fill="#58595b"/></g><g transform="translate(173.04 106.44)"><path d="m0 0 9.876-3.973-0.022-0.054-9.875 3.97z" fill="#58595b"/></g><g transform="translate(182.87 102.44)"><path d="m0 0 0.059-1e-3 -0.307-15.526-0.061 3e-3z" fill="#58595b"/></g><g transform="translate(176.74 96.225)"><path d="m0 0 5.876-9.296-0.051-0.033-5.875 9.299z" fill="#58595b"/></g><g transform="translate(182.56 86.914)"><path d="m0 0 0.061-3e-3 -0.194-11.915-0.06-1e-3z" fill="#58595b"/></g><g transform="translate(151.19 84.278)"><path d="m0 0 31.404 2.666 5e-3 -0.063-31.404-2.662z" fill="#58595b"/></g><g transform="translate(172.7 106.31)"><path d="m0 0 0.037-0.044-7.323-6.725-0.043 0.044z" fill="#58595b"/></g><g transform="translate(165.4 99.591)"><path d="m0 0 11.329-3.354-0.016-0.056-11.328 3.35z" fill="#58595b"/></g><g transform="translate(165.42 99.577)"><path d="m0 0 17.013-24.563-0.053-0.035-17.009 24.563z" fill="#58595b"/></g><g transform="translate(182.88 102.46)"><path d="m0 0 0.043-0.04-6.184-6.229-0.043 0.042z" fill="#58595b"/></g><g transform="translate(182.92 114.56)"><path d="m0 0 0.055-0.016-6.231-18.345-0.058 0.019z" fill="#58595b"/></g><g transform="translate(176.71 96.235)"><path d="m0 0 0.023-0.054-25.53-11.96-0.026 0.053z" fill="#58595b"/></g><g transform="translate(182.39 75.024)"><path d="m0 0 14.039 5.573 0.024-0.053-14.042-5.575z" fill="#58595b"/></g><g transform="translate(182.11 75.809)"><path d="m0 0 11.113-9.489-0.043-0.043-11.106 9.485z" fill="#58595b"/></g><g transform="translate(170.1 75.11)"><path d="m0 0 12.296-0.084v-0.06l-12.297 0.082z" fill="#58595b"/></g><g transform="translate(196.79 27.366)"><path d="m0 0c-0.176 0.437 0.039 0.93 0.475 1.104 0.437 0.172 0.93-0.042 1.101-0.478 0.176-0.434-0.041-0.927-0.474-1.1-0.439-0.173-0.932 0.038-1.102 0.474" fill="#58595b"/></g><g transform="translate(179.47 30.378)"><path d="m0 0c-0.173 0.435 0.04 0.929 0.477 1.103 0.434 0.172 0.927-0.041 1.1-0.477 0.175-0.435-0.038-0.93-0.475-1.102-0.436-0.174-0.928 0.04-1.102 0.476" fill="#58595b"/></g><g transform="translate(196.52 41.732)"><path d="M 0,0 C -0.174,0.435 0.041,0.925 0.477,1.098 0.912,1.272 1.402,1.06 1.576,0.623 1.752,0.187 1.537,-0.305 1.103,-0.478 0.67,-0.649 0.176,-0.439 0,0" fill="#58595b"/></g><g transform="translate(193.72 44.183)"><path d="M 0,0 C -0.172,0.437 0.037,0.93 0.475,1.103 0.91,1.276 1.404,1.062 1.578,0.626 1.751,0.191 1.537,-0.302 1.104,-0.476 0.666,-0.648 0.171,-0.436 0,0" fill="#58595b"/></g><g transform="translate(182.56 58.615)"><path d="m0 0c-0.172 0.433 0.038 0.928 0.477 1.102 0.433 0.172 0.927-0.04 1.101-0.476 0.174-0.437-0.043-0.929-0.476-1.104-0.436-0.171-0.93 0.041-1.102 0.478" fill="#58595b"/></g><g transform="translate(174.67 44.768)"><path d="m0 0c-0.172 0.437 0.041 0.93 0.475 1.103 0.437 0.172 0.932-0.041 1.104-0.476 0.173-0.436-0.04-0.929-0.475-1.102-0.434-0.173-0.928 0.04-1.104 0.475" fill="#58595b"/></g><g transform="translate(167.92 61.779)"><path d="m0 0c-0.174 0.432 0.041 0.927 0.475 1.101 0.435 0.172 0.93-0.04 1.103-0.476 0.17-0.437-0.041-0.93-0.476-1.102-0.436-0.173-0.93 0.04-1.102 0.477" fill="#58595b"/></g><g transform="translate(184.34 49.522)"><path d="m0 0c-0.172 0.434 0.041 0.928 0.477 1.103 0.433 0.17 0.927-0.042 1.101-0.477 0.175-0.437-0.039-0.931-0.474-1.103-0.436-0.173-0.93 0.04-1.104 0.477" fill="#58595b"/></g><g transform="translate(181.81 86.598)"><path d="M 0,0 C -0.174,0.437 0.039,0.931 0.475,1.104 0.91,1.278 1.406,1.063 1.576,0.627 1.748,0.192 1.537,-0.302 1.102,-0.474 0.666,-0.649 0.171,-0.435 0,0" fill="#58595b"/></g><g transform="translate(164.6 99.245)"><path d="m0 0c-0.173 0.437 0.038 0.934 0.475 1.105 0.437 0.172 0.927-0.043 1.101-0.478 0.173-0.435-0.039-0.927-0.475-1.1-0.435-0.175-0.93 0.04-1.101 0.473" fill="#58595b"/></g><g transform="translate(150.4 83.936)"><path d="m0 0c-0.172 0.435 0.037 0.927 0.473 1.102 0.435 0.172 0.929-0.04 1.104-0.477 0.173-0.437-0.04-0.928-0.475-1.103-0.436-0.17-0.932 0.041-1.102 0.478" fill="#58595b"/></g><g transform="translate(169.32 74.767)"><path d="m0 0c-0.173 0.435 0.04 0.931 0.477 1.103 0.434 0.173 0.927-0.041 1.1-0.477 0.175-0.435-0.039-0.928-0.474-1.102-0.438-0.172-0.931 0.041-1.103 0.476" fill="#58595b"/></g><g transform="translate(172.24 106.1)"><path d="m0 0c-0.173 0.434 0.038 0.929 0.477 1.102 0.433 0.172 0.925-0.042 1.101-0.475 0.174-0.44-0.041-0.93-0.476-1.105-0.434-0.17-0.928 0.042-1.102 0.478" fill="#58595b"/></g><g transform="translate(192.41 65.983)"><path d="M 0,0 C -0.169,0.436 0.042,0.928 0.476,1.102 0.913,1.276 1.404,1.061 1.58,0.626 1.754,0.19 1.541,-0.303 1.105,-0.477 0.67,-0.65 0.176,-0.437 0,0" fill="#58595b"/></g><g transform="translate(136.78 62.762)"><path d="M 0,0 C -0.176,0.438 0.039,0.931 0.475,1.104 0.909,1.276 1.403,1.063 1.577,0.63 1.75,0.192 1.535,-0.301 1.101,-0.474 0.664,-0.646 0.17,-0.435 0,0" fill="#58595b"/></g><g transform="translate(135.24 89.416)"><path d="m0 0c-0.174 0.439 0.039 0.93 0.477 1.104 0.434 0.175 0.927-0.04 1.098-0.476 0.173-0.435-0.04-0.93-0.475-1.103-0.435-0.172-0.928 0.04-1.1 0.475" fill="#58595b"/></g><g transform="translate(148.92 29.878)"><path d="m0 0c-0.175 0.436 0.038 0.93 0.472 1.103 0.437 0.174 0.93-0.041 1.103-0.477 0.172-0.436-0.041-0.928-0.474-1.101-0.435-0.171-0.932 0.04-1.101 0.475" fill="#58595b"/></g><g transform="translate(131.5 31.491)"><path d="m0 0c-0.169 0.437 0.042 0.93 0.478 1.102 0.438 0.173 0.931-0.04 1.103-0.475 0.172-0.436-0.042-0.93-0.475-1.102-0.435-0.173-0.933 0.038-1.106 0.475" fill="#58595b"/></g><g transform="translate(165.07 11.975)"><path d="m0 0c-0.172 0.435 0.04 0.929 0.477 1.103 0.433 0.169 0.926-0.043 1.1-0.478 0.175-0.438-0.039-0.93-0.477-1.102-0.434-0.174-0.928 0.04-1.1 0.477" fill="#58595b"/></g><g transform="translate(155.79 51.444)"><path d="m0 0c-0.176 0.437 0.039 0.93 0.475 1.104 0.433 0.173 0.929-0.041 1.102-0.476 0.172-0.438-0.042-0.93-0.477-1.103-0.436-0.172-0.926 0.04-1.1 0.475" fill="#58595b"/></g><g transform="translate(194.94 18.23)"><path d="M 0,0 C -0.172,0.434 0.041,0.928 0.477,1.102 0.911,1.275 1.404,1.062 1.58,0.625 1.752,0.19 1.537,-0.303 1.104,-0.476 0.665,-0.648 0.175,-0.437 0,0" fill="#58595b"/></g><g transform="translate(214.56 22.705)"><path d="m0 0c-0.174 0.436 0.038 0.931 0.473 1.103 0.439 0.17 0.929-0.041 1.103-0.478 0.175-0.434-0.037-0.927-0.474-1.098-0.436-0.174-0.928 0.037-1.102 0.473" fill="#58595b"/></g><g transform="translate(205.29 43.73)"><path d="m0 0c-0.172 0.436 0.042 0.929 0.477 1.103 0.434 0.171 0.932-0.042 1.1-0.478 0.174-0.435-0.037-0.93-0.473-1.102-0.437-0.173-0.931 0.04-1.104 0.477" fill="#58595b"/></g><g transform="translate(199.89 61.95)"><path d="M 0,0 C -0.174,0.437 0.04,0.929 0.475,1.103 0.91,1.275 1.404,1.062 1.577,0.625 1.75,0.19 1.537,-0.302 1.1,-0.476 0.664,-0.647 0.172,-0.436 0,0" fill="#58595b"/></g><g transform="translate(195.65 80.257)"><path d="M 0,0 C -0.172,0.434 0.037,0.929 0.475,1.102 0.91,1.274 1.404,1.062 1.577,0.627 1.75,0.19 1.539,-0.303 1.103,-0.476 0.666,-0.648 0.174,-0.436 0,0" fill="#58595b"/></g><g transform="translate(181.61 74.68)"><path d="m0 0c-0.173 0.44 0.038 0.934 0.474 1.107 0.437 0.171 0.931-0.041 1.105-0.477 0.17-0.436-0.043-0.928-0.478-1.102s-0.928 0.039-1.101 0.472" fill="#58595b"/></g><g transform="translate(175.93 95.894)"><path d="M 0,0 C -0.17,0.438 0.039,0.932 0.477,1.104 0.91,1.279 1.405,1.064 1.576,0.628 1.752,0.193 1.541,-0.3 1.102,-0.473 0.667,-0.646 0.173,-0.435 0,0" fill="#58595b"/></g><g transform="translate(182.11 102.12)"><path d="M 0,0 C -0.175,0.435 0.04,0.929 0.475,1.103 0.909,1.276 1.402,1.062 1.576,0.628 1.749,0.19 1.536,-0.304 1.099,-0.477 0.664,-0.646 0.17,-0.437 0,0" fill="#58595b"/></g><g transform="translate(182.3 113.91)"><path d="m0 0c-0.174 0.437 0.037 0.931 0.477 1.104 0.434 0.172 0.927-0.044 1.1-0.477 0.173-0.437-0.04-0.933-0.475-1.101-0.437-0.173-0.93 0.04-1.102 0.474" fill="#58595b"/></g></g><g clip-path="url(#c)" opacity=".39999"><g transform="translate(179.68 85.963)"><path d="m0 0 10.635-15.993-0.053-0.036-10.64 15.994z" fill="#58595b"/></g><g transform="translate(209.98 103.02)"><path d="m0 0 0.055-0.031-19.716-33.054-0.056 0.031z" fill="#58595b"/></g><g transform="translate(209.99 103.03)"><path d="m0 0 0.029-0.057-30.354-17.057-0.032 0.055z" fill="#58595b"/></g><g transform="translate(210.04 103.01)"><path d="m0 0 3.439-24.041-0.066-8e-3 -3.439 24.04z" fill="#58595b"/></g><g transform="translate(231.68 122.73)"><path d="m0 0 0.045-0.046-21.703-19.699-0.047 0.046z" fill="#58595b"/></g><g transform="translate(237.48 106.01)"><path d="m0 0 8e-3 -0.063-27.477-2.971-0.01 0.063z" fill="#58595b"/></g><g transform="translate(231.74 122.72)"><path d="m0 0 5.775-16.733-0.061-0.022-5.776 16.734z" fill="#58595b"/></g><g transform="translate(231.72 122.73)"><path d="m0 0 28.652-18.298-0.036-0.056-28.65 18.299z" fill="#58595b"/></g><g transform="translate(260.36 104.43)"><path d="m0 0-6e-3 -0.062-22.875 1.571 5e-3 0.065z" fill="#58595b"/></g><g transform="translate(237.51 105.98)"><path d="m0 0 5.219-22.479-0.065-0.014-5.216 22.479z" fill="#58595b"/></g><g transform="translate(237.51 105.97)"><path d="m0 0-6.844-30.245-0.063 0.013 6.845 30.246z" fill="#58595b"/></g><g transform="translate(237.46 106)"><path d="m0 0 0.05-0.046-24.036-27.008-0.049 0.043z" fill="#58595b"/></g><g transform="translate(210.03 103.02)"><path d="m0 0 20.635-27.275-0.053-0.038-20.634 27.275z" fill="#58595b"/></g><g transform="translate(210.02 103.03)"><path d="m0 0 32.697-19.509-0.037-0.057-32.693 19.513z" fill="#58595b"/></g><g transform="translate(242.68 83.522)"><path d="m0 0 0.037-0.057-12.209-8.03-0.035 0.055z" fill="#58595b"/></g><g transform="translate(190.32 69.946)"><path d="m0 0-4.154-26.146-0.068 0.013 4.16 26.142z" fill="#58595b"/></g><g transform="translate(220.78 58.259)"><path d="m0 0-0.026-0.061-30.478 11.724 0.026 0.06z" fill="#58595b"/></g><g transform="translate(213.43 78.994)"><path d="m0 0 0.022-0.061-23.155-9.011-0.022 0.059z" fill="#58595b"/></g><g transform="translate(213.48 78.976)"><path d="m0 0 7.322-20.735-0.06-0.021-7.321 20.734z" fill="#58595b"/></g><g transform="translate(230.64 75.762)"><path d="m0 0-0.012-0.064-17.193 3.234 0.014 0.063z" fill="#58595b"/></g><g transform="translate(213.46 78.988)"><path d="m0 0 24.591-17.922-0.041-0.051-24.588 17.921z" fill="#58595b"/></g><g transform="translate(230.67 75.744)"><path d="m0 0 7.396-14.688-0.059-0.032-7.397 14.692z" fill="#58595b"/></g><g transform="translate(230.61 75.745)"><path d="m0 0 0.061-0.032-9.877-17.5-0.054 0.034z" fill="#58595b"/></g><g transform="translate(220.74 58.247)"><path d="m0 0 0.054-0.034-8.979-14.027-0.054 0.037z" fill="#58595b"/></g><g transform="translate(220.76 58.259)"><path d="m0 0 0.022-0.061-34.631-14.417-0.028 0.06z" fill="#58595b"/></g><g transform="translate(211.79 44.238)"><path d="m0 0-1e-3 -0.067-25.65-0.397-1e-3 0.067z" fill="#58595b"/></g><g transform="translate(231.48 53.276)"><path d="m0 0 0.03-0.063-19.713-9.04-0.027 0.059z" fill="#58595b"/></g><g transform="translate(211.82 44.202)"><path d="m0 0 0.291-21.592-0.066-1e-3 -0.292 21.59z" fill="#58595b"/></g><g transform="translate(231.51 53.274)"><path d="m0 0-0.028-0.057-10.731 4.982 0.027 0.059z" fill="#58595b"/></g><g transform="translate(238.01 61.06)"><path d="m0 0 0.051-0.042-6.537-7.794-0.05 0.042z" fill="#58595b"/></g><g transform="translate(251.13 57.741)"><path d="m0 0-0.016-0.062-13.087 3.331 0.016 0.059z" fill="#58595b"/></g><g transform="translate(238.07 61.029)"><path d="m0 0-4.63-19.484-0.062 0.012 4.629 19.491z" fill="#58595b"/></g><g transform="translate(231.53 53.231)"><path d="m0 0-10.338-25.908-0.058 0.022 10.338 25.911z" fill="#58595b"/></g><g transform="translate(231.53 53.251)"><path d="m0 0 1.907-11.692-0.063-0.01-1.908 11.691z" fill="#58595b"/></g><g transform="translate(231.53 53.244)"><path d="m0 0-2.069-44.3-0.067-1e-3 2.069 44.303z" fill="#58595b"/></g><g transform="translate(221.15 27.358)"><path d="m0 0 0.03-0.055-9.083-4.722-0.031 0.058z" fill="#58595b"/></g><g transform="translate(221.19 27.347)"><path d="m0 0 8.273-18.391-0.06-0.024-8.27 18.39z" fill="#58595b"/></g><g transform="translate(233.22 37.493)"><path d="m0 0 0.04-0.049-12.081-10.139-0.04 0.049z" fill="#58595b"/></g><g transform="translate(233.44 41.552)"><path d="m0 0-0.166-4.083-0.063 1e-3 0.163 4.083z" fill="#58595b"/></g><g transform="translate(233.26 37.493)"><path d="m0 0 7.761-6.116-0.039-0.051-7.762 6.117z" fill="#58595b"/></g><g transform="translate(233.28 37.464)"><path d="m0 0-3.812-28.524-0.065 0.01 3.813 28.525z" fill="#58595b"/></g><g transform="translate(252.81 48.557)"><path d="m0 0 0.055-0.036-11.837-17.187-0.054 0.036z" fill="#58595b"/></g><g transform="translate(241.03 31.337)"><path d="m0 0-11.571-22.406-0.058 0.028 11.572 22.408z" fill="#58595b"/></g><g transform="translate(251.16 57.697)"><path d="m0 0-10.123-26.356-0.063 0.025 10.122 26.356z" fill="#58595b"/></g><g transform="translate(251.16 57.717)"><path d="m0 0 1.714-9.17-0.062-0.011-1.715 9.17z" fill="#58595b"/></g><g transform="translate(265.53 64.802)"><path d="m0 0 0.052-0.037-12.718-16.246-0.05 0.04z" fill="#58595b"/></g><g transform="translate(274.92 91.417)"><path d="m0 0-22.053-42.892-0.058 0.031 22.055 42.894z" fill="#58595b"/></g><g transform="translate(261.4 81.015)"><path d="m0 0 0.037-0.055-10.314-8.054-0.037 0.051z" fill="#58595b"/></g><g transform="translate(237.5 106)"><path d="m0 0 23.937-24.988-0.045-0.045-23.94 24.985z" fill="#58595b"/></g><g transform="translate(260.39 104.39)"><path d="m0 0-9.247-31.472-0.062 0.02 9.248 31.471z" fill="#58595b"/></g><g transform="translate(265.32 92.447)"><path d="m0 0-0.027-0.059-27.828 13.555 0.031 0.06z" fill="#58595b"/></g><g transform="translate(251.12 72.96)"><path d="m0 0 14.445-8.15-0.027-0.057-14.451 8.151z" fill="#58595b"/></g><g transform="translate(251.6 73.743)"><path d="m0 0-0.445-16.034-0.063 3e-3 0.442 16.031z" fill="#58595b"/></g><g transform="translate(242.73 83.514)"><path d="m0 0 8.41-10.56-0.053-0.041-8.41 10.561z" fill="#58595b"/></g><g transform="translate(220.35 27.788)"><path d="m0 0c0.253 0.45 0.822 0.608 1.271 0.355 0.449-0.255 0.606-0.819 0.354-1.268-0.253-0.449-0.824-0.611-1.269-0.357-0.45 0.255-0.607 0.825-0.356 1.27" fill="#58595b"/></g><g transform="translate(210.97 44.661)"><path d="m0 0c0.252 0.451 0.825 0.605 1.273 0.354 0.447-0.251 0.605-0.823 0.353-1.27-0.255-0.449-0.822-0.605-1.271-0.351-0.447 0.248-0.605 0.82-0.355 1.267" fill="#58595b"/></g><g transform="translate(232.43 37.929)"><path d="m0 0c0.252 0.446 0.822 0.604 1.27 0.351 0.447-0.25 0.603-0.817 0.353-1.269-0.252-0.447-0.821-0.605-1.269-0.353-0.45 0.253-0.608 0.822-0.354 1.271" fill="#58595b"/></g><g transform="translate(232.6 42.013)"><path d="m0 0c0.252 0.444 0.82 0.605 1.271 0.354 0.448-0.253 0.604-0.824 0.352-1.272-0.255-0.447-0.822-0.607-1.269-0.353-0.446 0.253-0.608 0.821-0.354 1.271" fill="#58595b"/></g><g transform="translate(237.22 61.5)"><path d="m0 0c0.258 0.447 0.824 0.605 1.274 0.352 0.446-0.251 0.607-0.82 0.351-1.27-0.252-0.448-0.82-0.606-1.271-0.355-0.446 0.253-0.606 0.824-0.354 1.273" fill="#58595b"/></g><g transform="translate(219.96 58.688)"><path d="m0 0c0.252 0.446 0.82 0.605 1.266 0.353 0.451-0.252 0.61-0.821 0.356-1.266-0.255-0.451-0.821-0.609-1.27-0.358-0.448 0.255-0.609 0.819-0.352 1.271" fill="#58595b"/></g><g transform="translate(229.83 76.186)"><path d="m0 0c0.254 0.451 0.819 0.608 1.27 0.354 0.451-0.253 0.607-0.821 0.356-1.271-0.255-0.447-0.823-0.605-1.272-0.351-0.448 0.251-0.604 0.82-0.354 1.268" fill="#58595b"/></g><g transform="translate(230.69 53.702)"><path d="m0 0c0.253 0.449 0.824 0.609 1.271 0.353 0.446-0.25 0.606-0.822 0.354-1.266-0.253-0.451-0.822-0.609-1.271-0.355-0.446 0.252-0.605 0.821-0.354 1.268" fill="#58595b"/></g><g transform="translate(236.67 106.43)"><path d="m0 0c0.252 0.447 0.819 0.606 1.267 0.351 0.451-0.247 0.607-0.818 0.354-1.268-0.253-0.448-0.819-0.604-1.268-0.354-0.448 0.254-0.606 0.824-0.353 1.271" fill="#58595b"/></g><g transform="translate(241.89 83.948)"><path d="m0 0c0.254 0.451 0.821 0.61 1.271 0.357 0.451-0.253 0.607-0.822 0.355-1.271-0.255-0.448-0.823-0.606-1.27-0.352-0.447 0.252-0.607 0.821-0.356 1.266" fill="#58595b"/></g><g transform="translate(250.31 58.169)"><path d="m0 0c0.252 0.447 0.82 0.605 1.271 0.354 0.444-0.252 0.606-0.824 0.352-1.272-0.252-0.447-0.82-0.605-1.269-0.353-0.448 0.254-0.607 0.823-0.354 1.271" fill="#58595b"/></g><g transform="translate(209.19 103.46)"><path d="m0 0c0.252 0.448 0.824 0.607 1.27 0.353 0.449-0.252 0.606-0.821 0.35-1.27-0.253-0.447-0.819-0.607-1.265-0.354-0.451 0.254-0.606 0.823-0.355 1.271" fill="#58595b"/></g><g transform="translate(230.9 123.16)"><path d="m0 0c0.251 0.446 0.819 0.606 1.27 0.355 0.448-0.254 0.607-0.823 0.352-1.272-0.25-0.447-0.82-0.608-1.268-0.353-0.453 0.255-0.609 0.821-0.354 1.27" fill="#58595b"/></g><g transform="translate(189.48 70.41)"><path d="m0 0c0.254 0.448 0.82 0.605 1.267 0.353 0.449-0.251 0.609-0.822 0.354-1.269-0.252-0.448-0.822-0.605-1.267-0.355-0.447 0.254-0.608 0.821-0.354 1.271" fill="#58595b"/></g><g transform="translate(178.84 86.405)"><path d="m0 0c0.254 0.447 0.822 0.605 1.269 0.354 0.45-0.255 0.606-0.824 0.354-1.272-0.254-0.446-0.82-0.605-1.268-0.353-0.45 0.251-0.607 0.823-0.355 1.271" fill="#58595b"/></g><g transform="translate(185.32 44.267)"><path d="m0 0c0.255 0.447 0.825 0.609 1.271 0.356 0.448-0.254 0.603-0.825 0.353-1.271-0.256-0.448-0.822-0.606-1.27-0.356-0.447 0.254-0.604 0.823-0.354 1.271" fill="#58595b"/></g><g transform="translate(212.64 79.421)"><path d="m0 0c0.25 0.449 0.82 0.606 1.267 0.354 0.448-0.252 0.605-0.82 0.354-1.272-0.252-0.445-0.822-0.606-1.269-0.35-0.451 0.252-0.607 0.819-0.352 1.268" fill="#58595b"/></g><g transform="translate(211.27 23.065)"><path d="m0 0c0.25 0.451 0.822 0.609 1.271 0.356 0.448-0.251 0.604-0.818 0.354-1.267-0.252-0.449-0.824-0.608-1.271-0.356-0.446 0.254-0.607 0.823-0.354 1.267" fill="#58595b"/></g><g transform="translate(228.62 9.4023)"><path d="m0 0c0.252 0.447 0.82 0.606 1.269 0.354 0.448-0.253 0.609-0.822 0.352-1.269-0.252-0.447-0.822-0.606-1.269-0.355-0.448 0.25-0.606 0.823-0.352 1.27" fill="#58595b"/></g><g transform="translate(240.19 31.809)"><path d="m0 0c0.251 0.447 0.817 0.604 1.269 0.356 0.447-0.255 0.607-0.822 0.351-1.268-0.25-0.449-0.82-0.608-1.267-0.355-0.449 0.25-0.609 0.817-0.353 1.267" fill="#58595b"/></g><g transform="translate(252.03 48.997)"><path d="m0 0c0.255 0.45 0.821 0.606 1.27 0.357 0.447-0.254 0.605-0.825 0.353-1.271-0.252-0.447-0.819-0.61-1.269-0.355-0.449 0.25-0.608 0.822-0.354 1.269" fill="#58595b"/></g><g transform="translate(250.3 73.392)"><path d="m0 0c0.252 0.446 0.819 0.605 1.266 0.352 0.451-0.251 0.605-0.821 0.355-1.27-0.254-0.445-0.819-0.605-1.267-0.353-0.452 0.253-0.607 0.82-0.354 1.271" fill="#58595b"/></g></g><g clip-path="url(#b)" opacity=".7"><g transform="translate(180.57 54.892)"><path d="m0 0-10.152-27.11-0.09 0.034 10.148 27.112z" fill="#58595b"/></g><g transform="translate(228.14 32.93)"><path d="m0 0 9e-3 -0.097-57.778-5.084-8e-3 0.099z" fill="#58595b"/></g><g transform="translate(228.17 32.925)"><path d="m0 0-0.039-0.089-47.628 22.03 0.041 0.089z" fill="#58595b"/></g><g transform="translate(228.18 32.847)"><path d="m0 0-26.33-25.422-0.071 0.072 26.335 25.419z" fill="#58595b"/></g><g transform="translate(271.38 23.803)"><path d="m0 0-0.02-0.096-43.218 9.127 0.021 0.095z" fill="#58595b"/></g><g transform="translate(256.06 1.9668)"><path d="m0 0-0.074-0.066-27.873 30.949 0.068 0.064z" fill="#58595b"/></g><g transform="translate(271.41 23.726)"><path d="m0 0-15.346-21.821-0.082 0.055 15.347 21.825z" fill="#58595b"/></g><g transform="translate(274.33 -27.371)"><path d="m0 0-0.085-0.052-18.269 29.332 0.083 0.05z" fill="#58595b"/></g><g transform="translate(256.06 1.8994)"><path d="m0 0-22.859-26.211-0.075 0.065 22.863 26.212z" fill="#58595b"/></g><g transform="translate(256.04 1.8867)"><path d="m0 0-42.987-18.328-0.036 0.09 42.986 18.33z" fill="#58595b"/></g><g transform="translate(256.03 1.9814)"><path d="m0 0-0.012-0.099-54.208 5.531 0.011 0.093z" fill="#58595b"/></g><g transform="translate(228.19 32.866)"><path d="m0 0-15.112-49.277-0.095 0.029 15.113 49.276z" fill="#58595b"/></g><g transform="translate(170.39 27.755)"><path d="m0 0-35.605-17.991-0.043 0.089 35.604 17.989z" fill="#58595b"/></g><g transform="translate(182.99 -19.769)"><path d="m0 0-0.095-0.023-12.572 47.578 0.095 0.024z" fill="#58595b"/></g><g transform="translate(201.84 7.5029)"><path d="m0 0-0.054-0.083-31.439 20.339 0.05 0.08z" fill="#58595b"/></g><g transform="translate(201.85 7.4307)"><path d="m0 0-18.87-27.238-0.078 0.056 18.869 27.239z" fill="#58595b"/></g><g transform="translate(213.08 -16.378)"><path d="m0 0-0.09-0.041-11.217 23.857 0.085 0.043z" fill="#58595b"/></g><g transform="translate(201.86 7.4619)"><path d="m0 0-0.195-45.857-0.1 1e-3 0.201 45.855z" fill="#58595b"/></g><g transform="translate(182.97 -19.738)"><path d="m0 0-0.053-0.082-48.178 29.586 0.05 0.083z" fill="#58595b"/></g><g transform="translate(157.93 -21.154)"><path d="m0 0-0.077-0.06-23.122 30.995 0.079 0.055z" fill="#58595b"/></g><g transform="translate(256.07 1.9248)"><path d="m0 0-9.406-51.296-0.093 0.021 9.401 51.294z" fill="#58595b"/></g><g transform="translate(264.06 -44.016)"><path d="m0 0-0.094-0.016-7.993 45.956 0.095 0.016z" fill="#58595b"/></g><g transform="translate(255.87 3.3281)"><path d="m0 0c0.769 0.089 1.466-0.468 1.552-1.238 0.088-0.771-0.469-1.467-1.239-1.554-0.772-0.085-1.468 0.47-1.552 1.238-0.086 0.774 0.468 1.466 1.239 1.554" fill="#58595b"/></g><g transform="translate(227.99 34.275)"><path d="m0 0c0.769 0.087 1.461-0.464 1.55-1.237 0.085-0.772-0.468-1.468-1.239-1.553-0.772-0.087-1.467 0.469-1.551 1.237-0.088 0.772 0.465 1.466 1.24 1.553" fill="#58595b"/></g><g transform="translate(170.22 29.193)"><path d="m0 0c0.768 0.089 1.469-0.469 1.551-1.238 0.086-0.769-0.467-1.466-1.237-1.554-0.773-0.088-1.468 0.469-1.554 1.241-0.087 0.769 0.47 1.464 1.24 1.551" fill="#58595b"/></g><g transform="translate(180.36 56.307)"><path d="m0 0c0.773 0.086 1.469-0.469 1.555-1.239 0.088-0.77-0.469-1.466-1.241-1.554-0.769-0.087-1.465 0.469-1.549 1.24-0.088 0.771 0.464 1.465 1.235 1.553" fill="#58595b"/></g><g transform="translate(134.61 11.202)"><path d="m0 0c0.77 0.088 1.462-0.469 1.553-1.236 0.086-0.772-0.469-1.468-1.239-1.555-0.771-0.088-1.465 0.467-1.556 1.241-0.085 0.768 0.471 1.465 1.242 1.55" fill="#58595b"/></g><g transform="translate(201.66 8.8564)"><path d="m0 0c0.77 0.087 1.468-0.468 1.554-1.237 0.087-0.772-0.468-1.468-1.24-1.554-0.769-0.087-1.466 0.468-1.55 1.241-0.088 0.768 0.466 1.462 1.236 1.55" fill="#58595b"/></g></g><g clip-path="url(#a)" opacity=".7"><g transform="translate(235.55 179.51)"><path d="m0 0-26.333-25.423-0.069 0.073 26.334 25.419z" fill="#58595b"/></g><g transform="translate(263.43 148.63)"><path d="m0 0-0.073-0.065-27.876 30.948 0.074 0.065z" fill="#58595b"/></g><g transform="translate(263.43 148.56)"><path d="m0 0-22.859-26.207-0.077 0.062 22.864 26.213z" fill="#58595b"/></g><g transform="translate(263.41 148.55)"><path d="m0 0-42.988-18.332-0.04 0.092 42.989 18.325z" fill="#58595b"/></g><g transform="translate(263.4 148.64)"><path d="m0 0-0.011-0.096-54.207 5.528 0.012 0.096z" fill="#58595b"/></g><g transform="translate(235.57 179.53)"><path d="m0 0-15.114-49.274-0.095 0.029 15.115 49.275z" fill="#58595b"/></g><g transform="translate(235.57 179.54)"><path d="m0 0 5.014-57.159-0.099-9e-3 -5.013 57.16z" fill="#58595b"/></g><g transform="translate(240.55 122.43)"><path d="m0 0-0.035-0.089-20.584 7.83 0.037 0.09z" fill="#58595b"/></g><g transform="translate(177.76 174.41)"><path d="m0 0-35.606-17.991-0.043 0.09 35.605 17.989z" fill="#58595b"/></g><g transform="translate(190.36 126.89)"><path d="m0 0-0.094-0.022-12.574 47.576 0.095 0.023z" fill="#58595b"/></g><g transform="translate(209.21 154.16)"><path d="m0 0-0.053-0.081-31.445 20.337 0.053 0.082z" fill="#58595b"/></g><g transform="translate(209.23 154.09)"><path d="m0 0-18.87-27.24-0.084 0.057 18.87 27.238z" fill="#58595b"/></g><g transform="translate(220.45 130.28)"><path d="m0 0-0.09-0.042-11.222 23.86 0.093 0.039z" fill="#58595b"/></g><g transform="translate(209.23 154.12)"><path d="m0 0-0.197-45.858-0.1 1e-3 0.201 45.856z" fill="#58595b"/></g><g transform="translate(220.45 130.24)"><path d="m0 0-11.418-22-0.088 0.047 11.42 21.996z" fill="#58595b"/></g><g transform="translate(220.4 130.31)"><path d="m0 0 0.013-0.099-30.093-3.381-0.01 0.097z" fill="#58595b"/></g><g transform="translate(190.31 126.93)"><path d="m0 0 8e-3 -0.098-25.058-1.405-8e-3 0.098z" fill="#58595b"/></g><g transform="translate(190.34 126.92)"><path d="m0 0-0.049-0.082-48.18 29.586 0.05 0.081z" fill="#58595b"/></g><g transform="translate(165.3 125.51)"><path d="m0 0-0.076-0.061-23.123 30.992 0.078 0.059z" fill="#58595b"/></g><g transform="translate(193.72 109.42)"><path d="m0 0-0.049-0.085-28.44 16.105 0.051 0.084z" fill="#58595b"/></g><g transform="translate(165.29 125.44)"><path d="m0 0-26.122-19.411-0.059 0.077 26.121 19.412z" fill="#58595b"/></g><g transform="translate(193.74 109.38)"><path d="m0 0-0.095-0.019-3.382 17.511 0.095 0.018z" fill="#58595b"/></g><g transform="translate(208.99 108.32)"><path d="m0 0-7e-3 -0.102-15.292 1.11 6e-3 0.096z" fill="#58595b"/></g><g transform="translate(216.52 89.356)"><path d="m0 0-0.091-0.037-7.481 18.928 0.094 0.035z" fill="#58595b"/></g><g transform="translate(209.01 108.22)"><path d="m0 0-27.892-11.541-0.035 0.09 27.891 11.541z" fill="#58595b"/></g><g transform="translate(193.71 109.32)"><path d="m0 0-40.782-10.236-0.024 0.096 40.781 10.237z" fill="#58595b"/></g><g transform="translate(193.73 109.34)"><path d="m0 0-12.599-12.651-0.07 0.073 12.601 12.643z" fill="#58595b"/></g><g transform="translate(193.72 109.33)"><path d="m0 0-55.94-36.571-0.055 0.084 55.941 36.566z" fill="#58595b"/></g><g transform="translate(152.94 99.177)"><path d="m0 0-0.045-0.086-13.781 6.93 0.042 0.09z" fill="#58595b"/></g><g transform="translate(152.96 99.109)"><path d="m0 0-15.162-26.331-0.085 0.052 15.164 26.327z" fill="#58595b"/></g><g transform="translate(175.98 93.367)"><path d="m0 0-0.025-0.094-23.043 5.814 0.02 0.096z" fill="#58595b"/></g><g transform="translate(181.13 96.684)"><path d="m0 0-5.135-3.405-0.052 0.083 5.134 3.402z" fill="#58595b"/></g><g transform="translate(176.01 93.316)"><path d="m0 0-0.624-14.875-0.097 2e-3 0.621 14.879z" fill="#58595b"/></g><g transform="translate(175.99 93.274)"><path d="m0 0-38.212-20.515-0.046 0.088 38.21 20.516z" fill="#58595b"/></g><g transform="translate(206.78 79.201)"><path d="m0 0 2e-3 -0.097-31.44-0.712v0.101z" fill="#58595b"/></g><g transform="translate(175.35 78.394)"><path d="m0 0-37.588-5.64-0.012 0.097 37.583 5.643z" fill="#58595b"/></g><g transform="translate(216.48 89.288)"><path d="m0 0-41.132-10.891-0.026 0.096 41.133 10.893z" fill="#58595b"/></g><g transform="translate(216.51 89.302)"><path d="m0 0-9.689-10.186-0.071 0.07 9.688 10.186z" fill="#58595b"/></g><g transform="translate(237.85 77.998)"><path d="m0 0-7e-3 -0.099-31.066 1.204 6e-3 0.098z" fill="#58595b"/></g><g transform="translate(278.65 90.01)"><path d="m0 0-71.867-10.905-0.012 0.095 71.863 10.908z" fill="#58595b"/></g><g transform="translate(297.37 84.693)"><path d="m0 0 0.014-0.097-59.532-6.695-9e-3 0.097z" fill="#58595b"/></g><g transform="translate(254.03 97.266)"><path d="m0 0-16.145-19.346-0.078 0.064 16.147 19.348z" fill="#58595b"/></g><g transform="translate(289.3 104.05)"><path d="m0 0-51.438-26.145-0.042 0.089 51.435 26.143z" fill="#58595b"/></g><g transform="translate(278.66 90.104)"><path d="m0 0-0.026-0.094-24.656 7.242 0.031 0.094z" fill="#58595b"/></g><g transform="translate(271.4 102.59)"><path d="m0 0-17.396-5.335-0.027 0.095 17.393 5.335z" fill="#58595b"/></g><g transform="translate(254.01 97.347)"><path d="m0 0-0.026-0.095-18.941 5.489 0.027 0.095z" fill="#58595b"/></g><g transform="translate(263.44 148.58)"><path d="m0 0-9.405-51.293-0.093 0.018 9.4 51.295z" fill="#58595b"/></g><g transform="translate(281.68 119.22)"><path d="m0 0-46.613-16.475-0.035 0.093 46.613 16.474z" fill="#58595b"/></g><g transform="translate(235.1 102.79)"><path d="m0 0 2.793-24.837-0.097-0.013-2.794 24.84z" fill="#58595b"/></g><g transform="translate(236.48 102.91)"><path d="m0 0-19.979-13.612-0.054 0.082 19.974 13.608z" fill="#58595b"/></g><g transform="translate(240.58 122.37)"><path d="m0 0-5.484-19.591-0.093 0.027 5.482 19.591z" fill="#58595b"/></g><g transform="translate(152.76 100.53)"><path d="m0 0c0.771 0.088 1.463-0.467 1.551-1.237 0.086-0.77-0.468-1.466-1.237-1.553-0.771-0.086-1.466 0.47-1.552 1.241-0.086 0.767 0.465 1.465 1.238 1.549" fill="#58595b"/></g><g transform="translate(165.1 126.87)"><path d="m0 0c0.771 0.088 1.467-0.469 1.551-1.24 0.088-0.768-0.466-1.462-1.236-1.549-0.773-0.091-1.468 0.467-1.554 1.237-0.088 0.77 0.47 1.464 1.239 1.552" fill="#58595b"/></g><g transform="translate(175.81 94.717)"><path d="m0 0c0.771 0.085 1.467-0.471 1.552-1.241 0.088-0.77-0.464-1.464-1.238-1.551-0.771-0.087-1.464 0.467-1.551 1.237-0.087 0.773 0.466 1.466 1.237 1.555" fill="#58595b"/></g><g transform="translate(180.94 98.119)"><path d="m0 0c0.771 0.086 1.465-0.47 1.553-1.239 0.088-0.772-0.469-1.468-1.238-1.551-0.77-0.087-1.463 0.468-1.551 1.238-0.089 0.768 0.466 1.465 1.236 1.552" fill="#58595b"/></g><g transform="translate(208.83 109.66)"><path d="m0 0c0.769 0.088 1.464-0.468 1.55-1.238 0.088-0.772-0.465-1.467-1.237-1.554-0.773-0.086-1.468 0.467-1.554 1.239-0.084 0.773 0.47 1.466 1.241 1.553" fill="#58595b"/></g><g transform="translate(190.16 128.28)"><path d="m0 0c0.771 0.087 1.466-0.469 1.553-1.239 0.087-0.773-0.468-1.467-1.241-1.554-0.768-0.087-1.465 0.47-1.549 1.239-0.088 0.77 0.465 1.465 1.237 1.554" fill="#58595b"/></g><g transform="translate(220.25 131.66)"><path d="m0 0c0.768 0.087 1.465-0.467 1.553-1.24 0.086-0.769-0.469-1.465-1.241-1.552-0.769-0.089-1.466 0.469-1.554 1.238-0.084 0.772 0.47 1.468 1.242 1.554" fill="#58595b"/></g><g transform="translate(193.54 110.77)"><path d="m0 0c0.771 0.084 1.465-0.47 1.555-1.242 0.088-0.769-0.469-1.463-1.24-1.549-0.772-0.089-1.467 0.466-1.551 1.236-0.088 0.772 0.467 1.467 1.236 1.555" fill="#58595b"/></g><g transform="translate(253.83 98.692)"><path d="m0 0c0.77 0.09 1.467-0.465 1.554-1.233 0.087-0.773-0.468-1.467-1.242-1.554-0.767-0.086-1.462 0.468-1.549 1.237-0.088 0.773 0.466 1.467 1.237 1.55" fill="#58595b"/></g><g transform="translate(240.38 123.78)"><path d="m0 0c0.771 0.083 1.466-0.47 1.554-1.239 0.086-0.771-0.471-1.468-1.241-1.553-0.771-0.088-1.466 0.468-1.552 1.238s0.468 1.467 1.239 1.554" fill="#58595b"/></g><g transform="translate(216.31 90.735)"><path d="m0 0c0.768 0.084 1.467-0.47 1.551-1.24 0.085-0.773-0.468-1.467-1.238-1.554-0.771-0.087-1.469 0.471-1.553 1.239-0.086 0.77 0.469 1.465 1.24 1.555" fill="#58595b"/></g><g transform="translate(141.98 157.86)"><path d="m0 0c0.771 0.087 1.467-0.467 1.554-1.238 0.086-0.767-0.47-1.463-1.242-1.552-0.769-0.088-1.466 0.467-1.554 1.241-0.084 0.771 0.472 1.462 1.242 1.549" fill="#58595b"/></g><g transform="translate(209.03 155.52)"><path d="m0 0c0.77 0.084 1.465-0.466 1.553-1.24 0.085-0.77-0.467-1.465-1.241-1.553-0.77-0.087-1.464 0.47-1.552 1.239-0.086 0.77 0.468 1.465 1.24 1.554" fill="#58595b"/></g><g transform="translate(138.98 107.46)"><path d="m0 0c0.775 0.086 1.469-0.471 1.558-1.239 0.085-0.77-0.468-1.465-1.242-1.552-0.767-0.084-1.462 0.468-1.55 1.236-0.086 0.774 0.466 1.468 1.234 1.555" fill="#58595b"/></g><g transform="translate(137.6 74.2)"><path d="m0 0c0.774 0.086 1.467-0.47 1.553-1.241 0.088-0.769-0.467-1.466-1.236-1.551-0.772-0.087-1.466 0.467-1.553 1.239-0.085 0.771 0.467 1.464 1.236 1.553" fill="#58595b"/></g><g transform="translate(175.18 79.838)"><path d="m0 0c0.768 0.086 1.465-0.469 1.55-1.237 0.087-0.772-0.466-1.467-1.238-1.554-0.771-0.086-1.469 0.467-1.554 1.237-0.088 0.772 0.469 1.467 1.242 1.554" fill="#58595b"/></g><g transform="translate(206.62 80.546)"><path d="m0 0c0.771 0.087 1.466-0.466 1.554-1.237 0.086-0.772-0.468-1.467-1.239-1.553-0.771-0.087-1.466 0.469-1.554 1.236-0.086 0.777 0.468 1.469 1.239 1.554" fill="#58595b"/></g><g transform="translate(237.69 79.349)"><path d="m0 0c0.771 0.084 1.469-0.471 1.555-1.243 0.088-0.768-0.471-1.464-1.241-1.551-0.769-0.086-1.464 0.469-1.552 1.24s0.468 1.464 1.238 1.554" fill="#58595b"/></g><g transform="translate(234.9 104.18)"><path d="m0 0c0.771 0.088 1.468-0.465 1.553-1.237 0.088-0.773-0.469-1.464-1.238-1.551-0.772-0.087-1.464 0.467-1.553 1.238-0.088 0.772 0.467 1.463 1.238 1.55" fill="#58595b"/></g></g><g clip-path="url(#i)" opacity=".66"><g transform="translate(257.12 70.573)"><path d="m0 0 0.033 0.039 18.225-14.763-0.03-0.038z" fill="#58595b"/></g><g transform="translate(257.13 70.616)"><path d="m0 0 12.527 6.605 0.024-0.045-12.528-6.607z" fill="#58595b"/></g><g transform="translate(257.12 70.604)"><path d="m0 0 10.98 24.89 0.046-0.024-10.979-24.887z" fill="#58595b"/></g><g transform="translate(256.88 69.896)"><path d="M 0,0 C -0.385,0.145 -0.578,0.574 -0.432,0.958 -0.287,1.345 0.143,1.539 0.529,1.396 0.912,1.25 1.108,0.821 0.962,0.434 0.815,0.049 0.387,-0.148 0,0" fill="#58595b"/></g></g><g clip-path="url(#h)" opacity=".33"><g transform="translate(157.67 164.34)"><path d="m0 0-5.122-8.875-0.03 0.021 5.123 8.873z" fill="#58595b"/></g><g transform="translate(173 153.9)"><path d="m0 0-4e-3 -0.033-20.47 1.59 2e-3 0.034z" fill="#58595b"/></g><g transform="translate(173.01 153.89)"><path d="m0 0-0.02-0.025-15.344 10.466 0.019 0.03z" fill="#58595b"/></g><g transform="translate(173.01 153.87)"><path d="m0 0-10.675-7.342-0.021 0.029 10.677 7.342z" fill="#58595b"/></g><g transform="translate(187.56 148.19)"><path d="m0 0-0.01-0.033-14.559 5.705 0.014 0.033z" fill="#58595b"/></g><g transform="translate(180.94 141.46)"><path d="m0 0-0.028-0.015-7.93 12.428 0.028 0.018z" fill="#58595b"/></g><g transform="translate(187.57 148.16)"><path d="m0 0-6.63-6.723-0.024 0.023 6.629 6.727z" fill="#58595b"/></g><g transform="translate(187.57 148.17)"><path d="m0 0-1.961-18.028-0.034 2e-3 1.961 18.028z" fill="#58595b"/></g><g transform="translate(185.61 130.15)"><path d="m0 0-0.031-0.016-4.67 11.308 0.033 0.015z" fill="#58595b"/></g><g transform="translate(180.94 141.44)"><path d="m0 0-9.509-7.821-0.023 0.027 9.507 7.82z" fill="#58595b"/></g><g transform="translate(180.93 141.44)"><path d="m0 0-16.077-3.895-0.011 0.032 16.08 3.896z" fill="#58595b"/></g><g transform="translate(180.93 141.47)"><path d="m0 0-0.01-0.031-18.601 5.089 7e-3 0.033z" fill="#58595b"/></g><g transform="translate(173.01 153.87)"><path d="m0 0-8.149-16.325-0.03 0.013 8.148 16.328z" fill="#58595b"/></g><g transform="translate(173.02 153.88)"><path d="m0 0-1.581-20.25-0.034 3e-3 1.581 20.251z" fill="#58595b"/></g><g transform="translate(171.43 133.65)"><path d="m0 0-0.021-0.028-6.726 3.934 0.015 0.029z" fill="#58595b"/></g><g transform="translate(152.53 155.46)"><path d="m0 0-13.479-4.205-0.013 0.033 13.481 4.204z" fill="#58595b"/></g><g transform="translate(154.16 138.13)"><path d="m0 0-0.034-3e-3 -1.619 17.344 0.035 5e-3z" fill="#58595b"/></g><g transform="translate(162.33 146.55)"><path d="m0 0-0.023-0.025-9.793 8.93 0.024 0.027z" fill="#58595b"/></g><g transform="translate(162.33 146.53)"><path d="m0 0-8.174-8.411-0.025 0.023 8.176 8.412z" fill="#58595b"/></g><g transform="translate(164.86 137.56)"><path d="m0 0-0.032-7e-3 -2.525 8.984 0.032 9e-3z" fill="#58595b"/></g><g transform="translate(162.34 146.54)"><path d="m0 0-2.74-15.999-0.033 4e-3 2.739 15.999z" fill="#58595b"/></g><g transform="translate(164.86 137.54)"><path d="m0 0-5.271-7.014-0.028 0.02 5.27 7.016z" fill="#58595b"/></g><g transform="translate(164.85 137.57)"><path d="m0 0-1e-3 -0.033-10.706 0.573 4e-3 0.033z" fill="#58595b"/></g><g transform="translate(154.15 138.15)"><path d="m0 0-6e-3 -0.033-8.83 0.97 2e-3 0.032z" fill="#58595b"/></g><g transform="translate(154.16 138.14)"><path d="m0 0-0.022-0.025-15.097 13.135 0.023 0.029z" fill="#58595b"/></g><g transform="translate(145.33 139.11)"><path d="m0 0-0.031-0.016-6.266 12.168 0.03 0.016z" fill="#58595b"/></g><g transform="translate(154.31 131.83)"><path d="m0 0-0.019-0.026-8.993 7.277 0.024 0.027z" fill="#58595b"/></g><g transform="translate(145.32 139.08)"><path d="m0 0-10.25-5.256-0.016 0.029 10.252 5.26z" fill="#58595b"/></g><g transform="translate(154.32 131.82)"><path d="m0 0-0.029-4e-3 -0.162 6.31 0.034 1e-3z" fill="#58595b"/></g><g transform="translate(159.59 130.56)"><path d="m0 0-0.01-0.034-5.273 1.28 7e-3 0.032z" fill="#58595b"/></g><g transform="translate(161.1 123.5)"><path d="m0 0-0.033-8e-3 -1.509 7.048 0.033 4e-3z" fill="#58595b"/></g><g transform="translate(159.58 130.53)"><path d="m0 0-10.41-2.404-6e-3 0.032 10.41 2.404z" fill="#58595b"/></g><g transform="translate(154.31 131.8)"><path d="m0 0-14.836-1.197-4e-3 0.037 14.835 1.198z" fill="#58595b"/></g><g transform="translate(154.31 131.8)"><path d="m0 0-5.135-3.681-0.019 0.027 5.134 3.682z" fill="#58595b"/></g><g transform="translate(154.31 131.8)"><path d="m0 0-21.666-9.51-0.012 0.033 21.662 9.506z" fill="#58595b"/></g><g transform="translate(139.48 130.64)"><path d="m0 0-0.021-0.027-4.409 3.221 0.022 0.029z" fill="#58595b"/></g><g transform="translate(139.48 130.61)"><path d="m0 0-6.829-8.309-0.029 0.022 6.83 8.308z" fill="#58595b"/></g><g transform="translate(147.19 127.26)"><path d="m0 0-0.012-0.034-7.709 3.376 0.014 0.029z" fill="#58595b"/></g><g transform="translate(149.17 128.12)"><path d="m0 0-1.988-0.89-0.015 0.033 1.99 0.889z" fill="#58595b"/></g><g transform="translate(147.19 127.24)"><path d="m0 0-1.082-5.158-0.035 9e-3 1.087 5.158z" fill="#58595b"/></g><g transform="translate(147.18 127.23)"><path d="m0 0-14.537-4.937-0.012 0.033 14.539 4.937z" fill="#58595b"/></g><g transform="translate(157.12 120.52)"><path d="m0 0-6e-3 -0.034-11.02 1.585 6e-3 0.035z" fill="#58595b"/></g><g transform="translate(146.09 122.07)"><path d="m0 0-13.453 0.222v0.033l13.453-0.219z" fill="#58595b"/></g><g transform="translate(161.09 123.48)"><path d="m0 0-14.996-1.407-2e-3 0.035 14.996 1.406z" fill="#58595b"/></g><g transform="translate(161.1 123.48)"><path d="m0 0-3.977-2.992-0.022 0.027 3.978 2.991z" fill="#58595b"/></g><g transform="translate(167.89 118.29)"><path d="m0 0-8e-3 -0.033-10.774 2.226 8e-3 0.036z" fill="#58595b"/></g><g transform="translate(182.84 120.11)"><path d="m0 0-25.726 0.379v0.033l25.726-0.379z" fill="#58595b"/></g><g transform="translate(189.06 117.16)"><path d="m0 0-1e-3 -0.034-21.176 1.133 1e-3 0.033z" fill="#58595b"/></g><g transform="translate(174.66 124.08)"><path d="m0 0-6.765-5.813-0.023 0.025 6.765 5.815z" fill="#58595b"/></g><g transform="translate(187.37 124.39)"><path d="m0 0-19.481-6.13-0.012 0.03 19.484 6.133z" fill="#58595b"/></g><g transform="translate(189.07 117.16)"><path d="m0 0-0.014-0.033-6.226 2.982 0.013 0.034z" fill="#58595b"/></g><g transform="translate(187.38 124.39)"><path d="m0 0-4.534-4.279-0.022 0.024 4.532 4.282z" fill="#58595b"/></g><g transform="translate(182.84 120.14)"><path d="m0 0-0.016-0.034-8.185 3.966 0.018 0.031z" fill="#58595b"/></g><g transform="translate(181.04 124.92)"><path d="m0 0-6.389-0.849-2e-3 0.035 6.385 0.846z" fill="#58595b"/></g><g transform="translate(174.66 124.11)"><path d="m0 0-0.017-0.03-6.293 3.019 0.018 0.033z" fill="#58595b"/></g><g transform="translate(180.94 141.44)"><path d="m0 0-6.273-17.36-0.034 9e-3 6.274 17.366z" fill="#58595b"/></g><g transform="translate(187.4 124.6)"><path d="m0 0-0.034-0.01-1.787 5.547 0.032 0.011z" fill="#58595b"/></g><g transform="translate(185.61 130.13)"><path d="m0 0-4.557-5.205-0.023 0.021 4.557 5.207z" fill="#58595b"/></g><g transform="translate(185.6 130.13)"><path d="m0 0-17.234-3.034-6e-3 0.034 17.235 3.036z" fill="#58595b"/></g><g transform="translate(182.85 120.13)"><path d="m0 0-0.031-0.013-1.802 4.816 0.032 0.012z" fill="#58595b"/></g><g transform="translate(189.28 117.15)"><path d="m0 0-0.021-0.026-8.235 7.808 0.024 0.024z" fill="#58595b"/></g><g transform="translate(181.05 124.94)"><path d="m0 0-0.034-1e-3 -0.113 16.512h0.035z" fill="#58595b"/></g><g transform="translate(168.38 127.11)"><path d="m0 0-0.473-8.837-0.035 4e-3 0.475 8.833z" fill="#58595b"/></g><g transform="translate(168.86 127.07)"><path d="m0 0-7.769-3.586-0.012 0.031 7.767 3.588z" fill="#58595b"/></g><g transform="translate(171.43 133.62)"><path d="m0 0-3.057-6.521-0.031 0.012 3.057 6.524z" fill="#58595b"/></g><g transform="translate(139.5 131.12)"><path d="m0 0c0.271-0.015 0.482-0.248 0.469-0.523-0.014-0.274-0.248-0.486-0.524-0.469-0.271 0.013-0.484 0.247-0.467 0.521 0.012 0.276 0.247 0.485 0.522 0.471" fill="#58595b"/></g><g transform="translate(145.34 139.6)"><path d="m0 0c0.273-0.018 0.485-0.249 0.47-0.525-0.014-0.272-0.249-0.485-0.524-0.469-0.272 0.015-0.485 0.25-0.467 0.522 0.011 0.276 0.246 0.487 0.521 0.472" fill="#58595b"/></g><g transform="translate(147.2 127.74)"><path d="m0 0c0.275-0.013 0.484-0.25 0.471-0.522-0.017-0.275-0.25-0.485-0.524-0.471-0.277 0.016-0.482 0.248-0.47 0.521 0.015 0.276 0.251 0.489 0.523 0.472" fill="#58595b"/></g><g transform="translate(149.2 128.63)"><path d="m0 0c0.273-0.015 0.482-0.249 0.467-0.522-0.012-0.274-0.246-0.485-0.52-0.47-0.273 0.013-0.486 0.249-0.47 0.52 0.013 0.275 0.247 0.487 0.523 0.472" fill="#58595b"/></g><g transform="translate(159.6 131.04)"><path d="m0 0c0.274-0.014 0.485-0.25 0.472-0.522-0.017-0.276-0.25-0.487-0.526-0.472-0.273 0.016-0.481 0.25-0.467 0.521 0.014 0.276 0.249 0.486 0.521 0.473" fill="#58595b"/></g><g transform="translate(154.17 138.63)"><path d="m0 0c0.275-0.017 0.486-0.25 0.473-0.525-0.016-0.276-0.25-0.486-0.525-0.469-0.272 0.013-0.484 0.249-0.468 0.521 0.012 0.274 0.247 0.486 0.52 0.473" fill="#58595b"/></g><g transform="translate(164.88 138.05)"><path d="m0 0c0.273-0.017 0.483-0.25 0.47-0.524-0.016-0.276-0.248-0.487-0.524-0.469-0.275 0.013-0.482 0.249-0.469 0.52 0.014 0.276 0.248 0.486 0.523 0.473" fill="#58595b"/></g><g transform="translate(154.33 132.32)"><path d="m0 0c0.275-0.016 0.488-0.25 0.473-0.524-0.016-0.274-0.25-0.486-0.525-0.469-0.274 0.013-0.483 0.249-0.469 0.521 0.015 0.276 0.248 0.485 0.521 0.472" fill="#58595b"/></g><g transform="translate(174.68 124.59)"><path d="m0 0c0.275-0.013 0.485-0.249 0.473-0.521-0.016-0.276-0.25-0.488-0.524-0.473-0.275 0.016-0.486 0.251-0.469 0.525 0.014 0.272 0.247 0.485 0.52 0.469" fill="#58595b"/></g><g transform="translate(185.62 130.64)"><path d="m0 0c0.276-0.015 0.485-0.248 0.47-0.522-0.013-0.277-0.248-0.486-0.522-0.47-0.272 0.013-0.484 0.247-0.47 0.522 0.015 0.275 0.249 0.487 0.522 0.47" fill="#58595b"/></g><g transform="translate(180.95 141.95)"><path d="m0 0c0.275-0.017 0.484-0.25 0.469-0.525-0.014-0.276-0.248-0.485-0.52-0.469-0.275 0.014-0.488 0.248-0.47 0.521 0.013 0.274 0.246 0.486 0.521 0.473" fill="#58595b"/></g><g transform="translate(171.44 134.13)"><path d="m0 0c0.271-0.014 0.483-0.248 0.469-0.522-0.015-0.275-0.25-0.484-0.524-0.468-0.276 0.012-0.485 0.246-0.467 0.519 0.01 0.277 0.247 0.487 0.522 0.471" fill="#58595b"/></g><g transform="translate(187.4 124.9)"><path d="m0 0c0.272-0.018 0.484-0.25 0.47-0.526-0.015-0.27-0.252-0.48-0.524-0.467-0.275 0.016-0.484 0.249-0.468 0.521 0.011 0.278 0.248 0.486 0.522 0.472" fill="#58595b"/></g><g transform="translate(161.12 123.99)"><path d="m0 0c0.271-0.014 0.481-0.248 0.469-0.523-0.018-0.273-0.25-0.482-0.524-0.469-0.273 0.013-0.484 0.251-0.469 0.522 0.016 0.276 0.247 0.487 0.524 0.47" fill="#58595b"/></g><g transform="translate(173.02 154.38)"><path d="m0 0c0.275-0.017 0.484-0.251 0.472-0.523-0.016-0.274-0.25-0.486-0.523-0.472-0.274 0.014-0.484 0.249-0.47 0.523 0.015 0.277 0.247 0.486 0.521 0.472" fill="#58595b"/></g><g transform="translate(187.58 148.67)"><path d="m0 0c0.275-0.013 0.484-0.246 0.468-0.521-0.013-0.276-0.247-0.485-0.523-0.47-0.271 0.014-0.482 0.249-0.47 0.522 0.017 0.274 0.25 0.486 0.525 0.469" fill="#58595b"/></g><g transform="translate(152.56 155.97)"><path d="m0 0c0.271-0.012 0.484-0.249 0.469-0.521-0.016-0.275-0.251-0.485-0.526-0.471-0.273 0.015-0.485 0.25-0.467 0.522 0.01 0.277 0.25 0.485 0.524 0.47" fill="#58595b"/></g><g transform="translate(157.68 164.84)"><path d="m0 0c0.272-0.013 0.482-0.25 0.467-0.521-0.012-0.276-0.249-0.484-0.524-0.47-0.273 0.014-0.486 0.248-0.47 0.523 0.016 0.271 0.251 0.481 0.527 0.468" fill="#58595b"/></g><g transform="translate(139.07 151.76)"><path d="m0 0c0.276-0.016 0.485-0.25 0.47-0.524-0.016-0.272-0.247-0.485-0.523-0.469-0.274 0.014-0.484 0.246-0.468 0.521 0.013 0.276 0.248 0.486 0.521 0.472" fill="#58595b"/></g><g transform="translate(162.35 147.04)"><path d="m0 0c0.275-0.017 0.481-0.25 0.47-0.522-0.017-0.275-0.251-0.486-0.525-0.471-0.273 0.013-0.486 0.248-0.469 0.52 0.014 0.275 0.249 0.487 0.524 0.473" fill="#58595b"/></g><g transform="translate(135.09 134.34)"><path d="m0 0c0.273-0.017 0.484-0.25 0.468-0.525-0.013-0.272-0.247-0.485-0.523-0.468-0.273 0.012-0.485 0.25-0.469 0.52 0.015 0.277 0.251 0.485 0.524 0.473" fill="#58595b"/></g><g transform="translate(132.67 122.81)"><path d="m0 0c0.279-0.014 0.486-0.247 0.472-0.523-0.016-0.271-0.25-0.482-0.523-0.469-0.275 0.014-0.486 0.249-0.47 0.523 0.013 0.274 0.249 0.484 0.521 0.469" fill="#58595b"/></g><g transform="translate(146.12 122.59)"><path d="m0 0c0.273-0.013 0.482-0.248 0.467-0.521-0.014-0.277-0.248-0.486-0.52-0.473-0.277 0.016-0.486 0.25-0.47 0.525 0.013 0.272 0.247 0.486 0.523 0.469" fill="#58595b"/></g><g transform="translate(157.14 121)"><path d="m0 0c0.276-0.015 0.484-0.248 0.469-0.521-0.014-0.275-0.249-0.485-0.521-0.472-0.277 0.016-0.488 0.25-0.47 0.524 0.011 0.275 0.248 0.484 0.522 0.469" fill="#58595b"/></g><g transform="translate(167.91 118.77)"><path d="m0 0c0.272-0.017 0.484-0.249 0.469-0.521-0.013-0.276-0.248-0.486-0.524-0.471-0.271 0.013-0.482 0.25-0.466 0.521 0.012 0.275 0.248 0.484 0.521 0.471" fill="#58595b"/></g><g transform="translate(168.39 127.61)"><path d="m0 0c0.275-0.017 0.485-0.251 0.473-0.523-0.016-0.274-0.25-0.487-0.526-0.471-0.273 0.015-0.482 0.249-0.468 0.523s0.25 0.484 0.521 0.471" fill="#58595b"/></g><g transform="translate(181.06 125.44)"><path d="m0 0c0.276-0.015 0.484-0.25 0.471-0.523-0.016-0.274-0.249-0.483-0.522-0.472-0.276 0.016-0.485 0.249-0.472 0.525s0.25 0.486 0.523 0.47" fill="#58595b"/></g><g transform="translate(182.86 120.62)"><path d="m0 0c0.275-0.017 0.485-0.25 0.47-0.524-0.016-0.273-0.247-0.486-0.524-0.47-0.272 0.014-0.484 0.251-0.47 0.523 0.017 0.275 0.252 0.487 0.524 0.471" fill="#58595b"/></g><g transform="translate(189.09 117.64)"><path d="m0 0c0.273-0.015 0.483-0.249 0.471-0.523-0.014-0.274-0.248-0.486-0.524-0.471-0.273 0.015-0.485 0.249-0.468 0.523 0.013 0.278 0.247 0.485 0.521 0.471" fill="#58595b"/></g></g><g clip-path="url(#g)" opacity=".39999"><g transform="translate(261.32 135.91)"><path d="m0 0-13.482-4.208-0.01 0.034 13.48 4.206z" fill="#58595b"/></g><g transform="translate(262.94 118.59)"><path d="m0 0-3e-3 -0.033-8.83 0.97 3e-3 0.034z" fill="#58595b"/></g><g transform="translate(262.95 118.59)"><path d="m0 0-0.023-0.028-15.096 13.139 0.021 0.028z" fill="#58595b"/></g><g transform="translate(254.12 119.56)"><path d="m0 0-0.033-0.014-6.268 12.167 0.031 0.018z" fill="#58595b"/></g><g transform="translate(263.11 112.28)"><path d="m0 0-0.023-0.026-8.995 7.279 0.024 0.026z" fill="#58595b"/></g><g transform="translate(254.11 119.53)"><path d="m0 0-10.254-5.255-0.014 0.03 10.25 5.257z" fill="#58595b"/></g><g transform="translate(263.1 112.25)"><path d="m0 0-14.834-1.197-2e-3 0.033 14.832 1.196z" fill="#58595b"/></g><g transform="translate(263.11 112.26)"><path d="m0 0-5.135-3.683-0.019 0.029 5.136 3.683z" fill="#58595b"/></g><g transform="translate(263.1 112.25)"><path d="m0 0-21.663-9.505-0.015 0.028 21.666 9.51z" fill="#58595b"/></g><g transform="translate(248.27 111.08)"><path d="m0 0-0.02-0.025-4.41 3.22 0.022 0.027z" fill="#58595b"/></g><g transform="translate(248.27 111.06)"><path d="m0 0-6.827-8.31-0.027 0.022 6.827 8.309z" fill="#58595b"/></g><g transform="translate(255.98 107.71)"><path d="m0 0-0.014-0.034-7.71 3.376 0.015 0.029z" fill="#58595b"/></g><g transform="translate(257.97 108.57)"><path d="m0 0-1.992-0.889-0.016 0.034 1.993 0.887z" fill="#58595b"/></g><g transform="translate(255.98 107.69)"><path d="m0 0-1.084-5.157-0.033 7e-3 1.084 5.16z" fill="#58595b"/></g><g transform="translate(255.97 107.68)"><path d="m0 0-14.535-4.934-0.013 0.031 14.535 4.936z" fill="#58595b"/></g><g transform="translate(265.9 100.97)"><path d="m0 0-4e-3 -0.034-11.019 1.584 4e-3 0.037z" fill="#58595b"/></g><g transform="translate(254.89 102.52)"><path d="m0 0-13.453 0.222 1e-3 0.034 13.451-0.219z" fill="#58595b"/></g><g transform="translate(269.88 103.93)"><path d="m0 0-14.996-1.409-2e-3 0.037 14.995 1.405z" fill="#58595b"/></g><g transform="translate(248.29 111.57)"><path d="m0 0c0.271-0.017 0.482-0.25 0.467-0.523-0.015-0.276-0.249-0.487-0.521-0.471-0.275 0.015-0.484 0.249-0.472 0.524 0.016 0.275 0.25 0.484 0.526 0.47" fill="#58595b"/></g><g transform="translate(254.13 120.04)"><path d="m0 0c0.275-0.017 0.483-0.25 0.473-0.521-0.018-0.276-0.252-0.487-0.527-0.473-0.272 0.017-0.485 0.25-0.467 0.522 0.011 0.277 0.249 0.485 0.521 0.472" fill="#58595b"/></g><g transform="translate(256 108.19)"><path d="m0 0c0.274-0.015 0.486-0.248 0.469-0.521-0.014-0.274-0.248-0.485-0.522-0.472-0.275 0.016-0.484 0.25-0.47 0.523 0.015 0.275 0.249 0.486 0.523 0.47" fill="#58595b"/></g><g transform="translate(257.99 109.08)"><path d="m0 0c0.272-0.013 0.482-0.251 0.469-0.521-0.014-0.276-0.25-0.486-0.522-0.47-0.275 0.014-0.484 0.247-0.472 0.521 0.015 0.275 0.25 0.484 0.525 0.47" fill="#58595b"/></g><g transform="translate(247.87 132.21)"><path d="m0 0c0.275-0.016 0.484-0.251 0.469-0.523-0.015-0.274-0.248-0.486-0.523-0.472-0.276 0.016-0.485 0.25-0.468 0.524 0.012 0.275 0.247 0.483 0.522 0.471" fill="#58595b"/></g><g transform="translate(243.88 114.79)"><path d="m0 0c0.275-0.018 0.482-0.251 0.468-0.521-0.012-0.278-0.248-0.486-0.525-0.473-0.27 0.016-0.48 0.25-0.467 0.525 0.016 0.272 0.25 0.486 0.524 0.469" fill="#58595b"/></g><g transform="translate(241.46 103.25)"><path d="m0 0c0.273-0.013 0.485-0.246 0.469-0.52-0.012-0.277-0.246-0.486-0.522-0.47-0.275 0.016-0.484 0.249-0.47 0.523 0.015 0.273 0.249 0.484 0.523 0.467" fill="#58595b"/></g><g transform="translate(254.91 103.03)"><path d="m0 0c0.272-0.012 0.483-0.248 0.47-0.521-0.018-0.274-0.249-0.484-0.526-0.468-0.271 0.012-0.482 0.246-0.466 0.521 0.011 0.274 0.247 0.484 0.522 0.468" fill="#58595b"/></g></g></g><g clip-path="url(#f)"><g transform="translate(122.85 125.24)"><path d="m0 0v4.31h4.865v1.125h-4.865v3.711h5.141v1.126h-6.398v-11.398h6.672v1.126zm-4.538 4.394c0-1.321 0.01-2.407 0.069-3.431-0.472 0.722-1.028 1.464-1.776 2.482l-5.019 6.827h-1.093v-11.398h1.238v6.071c0 1.288-9e-3 2.292-0.056 3.272 0.547-0.827 1.217-1.75 1.944-2.743l4.856-6.6h1.08v11.398h-1.243zm-11.114-5.52h1.255v11.398h-1.255zm-6.339 11.398h-1.258v-11.398h6.679v1.126h-5.421zm-4.537-5.878c0-1.321 0.01-2.407 0.073-3.431-0.474 0.722-1.029 1.464-1.781 2.482l-5.016 6.827h-1.097v-11.398h1.242v6.071c0 1.288-0.011 2.292-0.055 3.272 0.545-0.827 1.216-1.75 1.942-2.743l4.855-6.6h1.079v11.398h-1.242zm-11.536-3.223c-0.77-0.862-1.874-1.381-3.259-1.382h-0.018c-1.361 1e-3 -2.447 0.55-3.207 1.405-0.761 0.858-1.182 2.026-1.182 3.265 0 1.302 0.382 2.53 1.121 3.427 0.744 0.893 1.839 1.467 3.335 1.47 1.488-2e-3 2.568-0.606 3.306-1.495 0.732-0.887 1.107-2.073 1.107-3.206 0-1.41-0.438-2.623-1.203-3.484m-3.177 9.296c-1.618 0-3.066-0.619-4.107-1.686-1.045-1.066-1.673-2.579-1.673-4.351 0-1.658 0.603-3.099 1.617-4.121 1.012-1.028 2.435-1.631 4.05-1.631h0.013c1.476 0 2.916 0.525 3.992 1.55 1.079 1.022 1.778 2.544 1.775 4.49 2e-3 1.628-0.578 3.069-1.579 4.1-1.001 1.032-2.423 1.649-4.088 1.649m-9.41-4.675c-1.43 0.449-2.129 0.646-2.129 1.23 0 0.471 0.522 0.761 1.432 0.761 1.249 0 2.17-0.356 2.689-0.564l0.699 2.398c-0.845 0.358-1.85 0.619-3.343 0.619-2.84 0-4.624-1.462-4.624-3.442 0-1.897 1.54-2.855 3.408-3.373 1.331-0.376 1.833-0.68 1.833-1.152 0-0.555-0.518-0.877-1.539-0.877-1.251 0-2.421 0.406-3.15 0.763l-0.631-2.496c0.697-0.36 2.108-0.75 3.553-0.75 3.489 0 4.933 1.688 4.933 3.521 0 1.655-1.008 2.676-3.131 3.362m-11.182 4.249-0.862-2.726c-0.34-1.087-0.748-2.711-1.104-4.089h-0.061c-0.247 1.378-0.587 2.886-0.895 4.057l-0.731 2.758h-4.377l-0.621-10.937h2.889l0.163 4.074c0.049 1.362 0.097 3.097 0.164 4.769h0.03c0.293-1.622 0.651-3.328 0.973-4.671l0.975-3.945h2.45l1.184 3.959c0.424 1.379 0.94 3.102 1.33 4.657h0.05c0-1.897 0.016-3.407 0.048-4.769l0.113-4.074h3.052l-0.502 10.937zm-12.771-4.249c-1.43 0.449-2.126 0.646-2.126 1.23 0 0.471 0.519 0.761 1.426 0.761 1.247 0 2.177-0.356 2.694-0.564l0.699 2.398c-0.842 0.358-1.854 0.619-3.34 0.619-2.842 0-4.63-1.462-4.63-3.442 0-1.897 1.544-2.855 3.41-3.373 1.331-0.376 1.834-0.68 1.834-1.152 0-0.555-0.521-0.877-1.543-0.877-1.249 0-2.415 0.406-3.148 0.763l-0.632-2.496c0.698-0.36 2.111-0.75 3.554-0.75 3.489 0 4.932 1.688 4.932 3.521 0 1.655-1.005 2.676-3.13 3.362" fill="#03a550"/></g><path d="m36.625 116.75h1.446v1.448h-1.446zm0 2.043h1.446v1.449h-1.446zm0 2.044h1.446v1.445h-1.446zm-2.042-6.128h1.449v1.447h-1.449zm-2.043 0h1.45v1.447h-1.45zm0 4.084h1.45v1.449h-1.45zm0 2.044h1.45v1.445h-1.45zm-2.042-6.128h1.448v1.447h-1.448zm0 4.084h1.448v1.449h-1.448zm0 2.044h1.448v1.445h-1.448zm-2.04-6.128h1.445v1.447h-1.445zm0 4.084h1.445v1.449h-1.445zm0 2.044h1.445v1.445h-1.445zm-2.042-6.128h1.447v1.447h-1.447zm-2.043 2.041h1.447v1.448h-1.447zm0 2.043h1.447v1.449h-1.447zm0 2.044h1.447v1.445h-1.447zm12.252 2.042h1.446v1.443h-1.446zm-4.085 0h1.45v1.443h-1.45zm-2.042 0h1.448v1.443h-1.448zm-2.04 0h1.445v1.443h-1.445zm-4.085 0h1.447v1.443h-1.447zm12.252 2.039h1.446v1.449h-1.446zm-4.085 0h1.45v1.449h-1.45zm-2.042 0h1.448v1.449h-1.448zm-2.04 0h1.445v1.449h-1.445zm-4.085 0h1.447v1.449h-1.447zm12.252 2.044h1.446v1.447h-1.446zm-4.085 0h1.45v1.447h-1.45zm-2.042 0h1.448v1.447h-1.448zm-2.04 0h1.445v1.447h-1.445zm-4.085 0h1.447v1.447h-1.447zm12.252 2.044h1.446v1.446h-1.446zm-12.252 0h1.447v1.446h-1.447zm12.252 2.04h1.446v1.446h-1.446zm-4.085 0h1.45v1.446h-1.45zm-2.042 0h1.448v1.446h-1.448zm-2.04 0h1.445v1.446h-1.445zm-4.085 0h1.447v1.446h-1.447zm12.252 2.041h1.446v1.447h-1.446zm-4.085 0h1.45v1.447h-1.45zm-2.042 0h1.448v1.447h-1.448zm-2.04 0h1.445v1.447h-1.445zm-4.085 0h1.447v1.447h-1.447zm12.252 2.042h1.446v1.449h-1.446zm-4.085 0h1.45v1.449h-1.45zm-2.042 0h1.448v1.449h-1.448zm-2.04 0h1.445v1.449h-1.445zm-4.085 0h1.447v1.449h-1.447zm12.252 2.039h1.446v1.45h-1.446zm-12.252 0h1.447v1.45h-1.447zm10.21 2.044h1.449v1.447h-1.449zm-2.043 4.083h1.45v1.448h-1.45zm0-2.042h1.45v1.446h-1.45zm0-2.041h1.45v1.447h-1.45zm-2.042 0h1.448v1.447h-1.448zm-2.04 0h1.445v1.447h-1.445zm-2.042 0h1.447v1.447h-1.447z" fill="#03a550"/></g><text transform="matrix(1 0 0 -1 42.889 96.908)" fill="#231f20" font-family="'Helvetica'" font-size="9px"><tspan x="0 6.4980001 11.529 15.462 20.493 24.615 29.618999 32.120998 38.618999 43.757999 48.465 53.495998" y="0"> </tspan></text>
<text transform="matrix(1 0 0 -1 42.889 87.908)" fill="#231f20" font-family="'Helvetica'" font-size="7px"><tspan x="0 4.7389998 8.6520004 12.544 16.436001 19.495001 22.701 26.593 30.485001 32.431 36.224998 40.117001 42.063 45.856998 49.749001 53.640999 57.722 61.222 64.280998 67.487 71.378998" y="0">  </tspan><tspan x="0 4.0879998 7.98 9.9259996 13.818 17.709999 21.601999 23.548 27.440001 31.332001 35.223999 37.169998 41.062 44.953999 46.900002 50.792 54.683998" y="17.997">+7 915 360 22 66 </tspan><tspan x="0 4.0879998 7.98 9.9259996 13.818 17.709999 21.601999 23.548 27.440001 31.332001 35.223999 37.169998 41.062 44.953999 46.900002 50.792 54.683998" y="26.999001">+7 495 286 22 66 </tspan><tspan x="0 3.892 5.4460001 8.9460001 10.5 12.446 16.337999 18.284 19.837999 21.392 22.945999 26.837999 33.943001 37.443001 43.273998 46.773998 49.105 52.997002 56.889 58.443001 59.997002 63.889 67.780998 69.726997 73.226997 77.119003 82.949997" y="36.000999">nikita.ilin@sms-online.com </tspan></text>
<text transform="matrix(1 0 0 -1 42.889 34.904)" fill="#231f20" font-family="'Helvetica'" font-size="7px"><tspan x="0 5.0539999 10.108 15.162 17.108 20.608 26.438999 29.938999 32.27 36.161999 40.054001 41.608002 43.161999 47.054001 50.945999 52.891998 56.391998 60.284" y="0">www.sms-online.com</tspan></text>
<text transform="matrix(1 0 0 -1 42.889 24.901)" fill="#231f20" font-family="'Helvetica'" font-size="7px"><tspan x="0 3.892 7.7839999 11.676 15.568 19.459999 23.351999 25.298 27.243999 33.075001 36.966999 40.466999 43.526001 47.243 51.134998 53.081001 55.027 60.858002 64.75 68.641998 74.255997 78.148003 82.144997 86.037003 87.983002 92.652 97.670998 101.682 105.574 109.571 112.63 116.522 118.468 120.414 124.306 126.252 129.311 131.257" y="0">123060, ,  , 2 .6</tspan></text>
</g></svg>
