<?xml version="1.0" encoding="UTF-8"?>
<svg version="1.1" viewBox="0 0 60 60" xmlns="http://www.w3.org/2000/svg">
<defs>
<linearGradient id="a" x1="50%" x2="50%" y1="5.7124%" y2="99.556%">
<stop stop-color="#5FFD7D" offset="0"/>
<stop stop-color="#25CF43" offset="1"/>
</linearGradient>
</defs>
<g fill="none" fill-rule="evenodd">
<g transform="translate(-158 -398)">
<g transform="translate(158 398)">
<circle cx="30" cy="30" r="30" fill="url(#a)"/>
<path d="m30.01 43.439c-4.244 0-7.6413-2.2938-7.6413-2.2938l-5.2134 1.7011 1.6916-5.0473s-2.7021-3.7407-2.7021-8.2252c0-7.6575 6.2076-13.865 13.865-13.865s13.865 6.2076 13.865 13.865-6.2077 13.865-13.865 13.865zm0-30.371c-9.1161 0-16.506 7.3901-16.506 16.506 0 4.5244 2.3953 8.5684 2.3953 8.5684l-2.8857 8.7896 9.0443-2.8903s3.3576 2.0384 7.9522 2.0384c9.1162 0 16.506-7.3901 16.506-16.506s-7.3901-16.506-16.506-16.506z" fill="#fff"/>
<path d="m23.725 22.388s0.446-0.28265 0.67851-0.28265h1.3003s0.3487 0.060714 0.50882 0.42406c0.16021 0.36327 1.2565 2.9392 1.3381 3.1379 0.081553 0.19867 0.29433 0.69034-0.047083 1.1307-0.34141 0.44043-1.0554 1.2627-1.0554 1.2627s-0.28265 0.25453-0.037682 0.65971c0.24497 0.4051 1.1066 1.7418 2.2334 2.7516 1.1268 1.0098 2.5067 1.7526 3.1944 1.9788 0.68791 0.22617 0.83864-0.075364 1.1024-0.41458 0.26393-0.33922 1.0838-1.3757 1.0838-1.3757s0.28281-0.41458 0.83864-0.16021c0.55606 0.25437 3.2603 1.5642 3.2603 1.5642s0.32974 0.05664 0.34862 0.42406c0.018802 0.3675 0.24529 1.4672-0.73492 2.5252-0.9802 1.0581-3.0648 1.5477-4.0517 1.2718-0.9871-0.27592-4.2503-1.1297-6.3786-3.1144-2.1283-1.9847-3.8518-4.0738-4.5569-5.6145-0.70507-1.5407-0.6659-2.4547-0.62673-2.8855s0.26558-2.4275 1.6017-3.2833" fill="#fff"/>
</g>
</g>
</g>
</svg>
